<?xml version="1.0" encoding="UTF-8"?>
<!DOCTYPE svg PUBLIC "-//W3C//DTD SVG 1.1//EN" "http://www.w3.org/Graphics/SVG/1.1/DTD/svg11.dtd">
<!-- Creator: CorelDRAW X8 -->
<svg xmlns="http://www.w3.org/2000/svg" xml:space="preserve" width="11in" height="17in" version="1.1" style="shape-rendering:geometricPrecision; text-rendering:geometricPrecision; image-rendering:optimizeQuality; fill-rule:evenodd; clip-rule:evenodd"
viewBox="0 0 11000 17000"
 xmlns:xlink="http://www.w3.org/1999/xlink">
 <defs>
  <style type="text/css">
   <![CDATA[
    .str0 {stroke:#373435;stroke-width:7.87402}
    .fil0 {fill:#FEFEFE}
   ]]>
  </style>
 </defs>
 <g id="Layer_x0020_1">
  <metadata id="CorelCorpID_0Corel-Layer"/>
  <polygon class="fil0 str0" points="9090,1468 5339,1468 5339,6229 9090,6229 "/>
  <polygon class="fil0 str0" points="9774,1236 6135,1242 5339,1468 9090,1468 "/>
  <polygon class="fil0 str0" points="9774,1236 9090,1468 9090,6229 9772,5340 "/>
  <g id="_1215110473680">
   <polygon class="fil0 str0" points="2940,2214 1591,2214 1591,6975 2940,6975 "/>
   <polygon class="fil0 str0" points="3387,1792 2028,1807 1591,2214 2940,2214 "/>
   <polygon class="fil0 str0" points="3387,1792 2940,2214 2940,6975 3387,6356 "/>
  </g>
  <g id="_1215110470832">
   <polygon class="fil0 str0" points="4736,2214 3387,2214 3387,6975 4736,6975 "/>
   <polygon class="fil0 str0" points="5183,1792 3824,1807 3387,2214 4736,2214 "/>
   <polygon class="fil0 str0" points="5183,1792 4736,2214 4736,6975 5183,6356 "/>
  </g>
  <g id="_1215110468720">
   <polygon class="fil0 str0" points="2042,5663 1367,5663 1367,8043 2042,8043 "/>
   <polygon class="fil0 str0" points="2265,5452 1586,5459 1367,5663 2042,5663 "/>
   <polygon class="fil0 str0" points="2265,5452 2042,5663 2042,8043 2265,7734 "/>
  </g>
  <g id="_1215110468752">
   <polygon class="fil0 str0" points="3161,5705 2486,5705 2486,8085 3161,8085 "/>
   <polygon class="fil0 str0" points="3384,5494 2704,5501 2486,5705 3161,5705 "/>
   <polygon class="fil0 str0" points="3384,5494 3161,5705 3161,8085 3384,7776 "/>
  </g>
  <g id="_1215110465904">
   <polygon class="fil0 str0" points="4309,5725 3634,5725 3634,8105 4309,8105 "/>
   <polygon class="fil0 str0" points="4532,5514 3853,5521 3634,5725 4309,5725 "/>
   <polygon class="fil0 str0" points="4532,5514 4309,5725 4309,8105 4532,7796 "/>
  </g>
  <g id="_1215110463984">
   <polygon class="fil0 str0" points="5657,4704 4782,4704 4782,7790 5657,7790 "/>
   <polygon class="fil0 str0" points="5947,4430 5066,4440 4782,4704 5657,4704 "/>
   <polygon class="fil0 str0" points="5947,4430 5657,4704 5657,7790 5947,7389 "/>
  </g>
  <g id="_1215110464112">
   <polygon class="fil0 str0" points="6872,4704 5997,4704 5997,7790 6872,7790 "/>
   <polygon class="fil0 str0" points="7162,4430 6281,4440 5997,4704 6872,4704 "/>
   <polygon class="fil0 str0" points="7162,4430 6872,4704 6872,7790 7162,7389 "/>
  </g>
  <g id="_1215110461968">
   <polygon class="fil0 str0" points="8095,4704 7220,4704 7220,7790 8095,7790 "/>
   <polygon class="fil0 str0" points="8385,4430 7504,4440 7220,4704 8095,4704 "/>
   <polygon class="fil0 str0" points="8385,4430 8095,4704 8095,7790 8385,7389 "/>
  </g>
 </g>
</svg>
