<?xml version="1.0" encoding="UTF-8"?>
<!DOCTYPE svg PUBLIC "-//W3C//DTD SVG 1.1//EN" "http://www.w3.org/Graphics/SVG/1.1/DTD/svg11.dtd">
<!-- Creator: CorelDRAW X8 -->
<svg xmlns="http://www.w3.org/2000/svg" xml:space="preserve" width="1.4in" height=".5in" version="1.1" style="shape-rendering:geometricPrecision; text-rendering:geometricPrecision; image-rendering:optimizeQuality; fill-rule:evenodd; clip-rule:evenodd"
viewBox="2300 1800 3900 1000"
 xmlns:xlink="http://www.w3.org/1999/xlink">
 <defs>
  <style type="text/css">
   <![CDATA[
    .str0 {stroke:gray;stroke-width:10}
    .fil1 {fill:gray}
    .fil0 {fill:gray;fill-rule:nonzero}
    .fil2 {fill:gray;fill-rule:nonzero}
   ]]>
  </style>
 </defs>
 <g id="Capa_x0020_1">
  <metadata id="CorelCorpID_0Corel-Layer"/>
  <path class="fil0 str0" d="M3895 2414l0 -100 929 0 0 -125 -929 0 0 -99 929 0 0 -125 -1055 0 0 574 1055 0 0 -125 -929 0zm1050 -449l0 574 127 0 0 -436 800 436 128 0 0 -574 -127 0 0 436 -800 -436 -128 0z"/>
  <polygon class="fil0 str0" points="3522,2539 3649,2539 3649,1965 3522,1965 "/>
  <path class="fil0 str0" d="M2349 2417l0 125 937 0c31,0 59,-11 83,-32 23,-22 35,-53 35,-93l0 -99c0,-38 -12,-69 -35,-92 -24,-23 -52,-35 -83,-35l-765 0c-12,0 -22,-3 -31,-10 -9,-7 -14,-19 -14,-35l0 -10c0,-17 4,-28 11,-34 8,-6 19,-9 33,-9l884 0 0 -126 -936 0c-32,0 -60,11 -83,33 -24,22 -36,53 -36,93l0 98c0,41 12,72 36,94 23,21 51,32 83,32l765 0c15,0 26,3 33,10 8,6 11,17 11,34l0 11c0,15 -4,27 -13,34 -9,7 -20,11 -32,11l-883 0z"/>
  <path class="fil2" d="M2381 2763l0 -148 -33 0 0 148 33 0zm411 -115l-195 0 0 115 -33 0 0 -148 242 0c3,0 7,1 11,2 4,2 7,4 10,7 3,2 5,6 7,10 2,4 2,8 2,14l0 115 -32 0 0 -102c0,-4 -1,-7 -4,-10 -2,-2 -5,-3 -8,-3zm259 -33c-4,0 -8,1 -12,2 -4,2 -7,4 -10,7 -3,2 -5,6 -7,10 -1,4 -2,8 -2,14l0 83c0,5 1,10 2,14 2,4 4,7 7,10 3,3 6,5 10,6 4,2 8,2 12,2l210 0c4,0 8,0 11,-2 4,-1 8,-3 10,-6 3,-3 6,-6 7,-10 2,-4 3,-9 3,-14l0 -47 -33 0 0 33c0,4 -1,8 -3,10 -3,3 -5,4 -8,4l-185 0c-3,0 -5,-1 -7,-4 -2,-2 -3,-6 -3,-10l0 -56c0,-4 0,-7 2,-10 2,-2 5,-3 9,-3l228 0 0 -33 -241 0zm457 116l0 -26 239 0 0 -32 -239 0 0 -25 239 0 0 -33 -272 0 0 148 272 0 0 -32 -239 0zm650 -83l-195 0 0 115 -32 0 0 -148 241 0c4,0 8,1 11,2 4,2 7,4 10,7 3,2 5,6 7,10 2,4 3,8 3,14l0 115 -33 0 0 -102c0,-4 -1,-7 -3,-10 -3,-2 -5,-3 -9,-3zm261 115l0 -148 -33 0 0 148 33 0zm216 -32l0 -26 240 0 0 -32 -240 0 0 -25 240 0 0 -33 -272 0 0 148 272 0 0 -32 -240 0zm664 -116l-241 0 0 148 33 0 0 -58 180 0 26 58 33 0 -23 -59c7,-1 12,-5 17,-10 4,-5 6,-12 6,-21l0 -25c0,-5 -1,-10 -2,-14 -2,-4 -5,-7 -7,-10 -3,-3 -7,-5 -10,-7 -4,-1 -8,-2 -12,-2zm-208 33l194 0c4,0 7,0 9,2 2,2 3,5 3,9l0 4c0,4 -1,7 -3,8 -2,1 -5,2 -8,2l-195 0 0 -25zm456 115l0 -148 -33 0 0 148 33 0zm455 0l0 -115c0,-5 -1,-10 -2,-14 -2,-4 -4,-7 -7,-10 -3,-3 -6,-5 -10,-7 -4,-1 -8,-2 -12,-2l-210 0c-4,0 -8,1 -11,2 -4,2 -7,4 -10,7 -3,2 -5,6 -7,10 -2,4 -3,8 -3,14l0 115 33 0 0 -58 207 0 0 58 32 0zm-239 -102c0,-4 1,-7 3,-10 1,-2 4,-3 8,-3l184 0c4,0 7,1 9,3 2,3 3,6 3,10l0 12 -207 0 0 -12z"/>
 </g>
</svg>
